<svg height="100" viewBox="0 0 100 100" width="100" xmlns="http://www.w3.org/2000/svg"><circle cx="50" cy="50" fill="#f2c165" r="50"/><path d="m19.833 34.213a6.5 6.5 0 1 0 -6.5-6.5 6.508 6.508 0 0 0 6.5 6.5zm0-11.07a4.571 4.571 0 1 1 -4.571 4.57 4.576 4.576 0 0 1 4.571-4.57z" transform="translate(12.202 9.785)"/><path d="m46.307 39.445a7.883 7.883 0 1 0 -7.882-7.884 7.893 7.893 0 0 0 7.882 7.884zm0-13.837a5.954 5.954 0 1 1 -5.953 5.953 5.962 5.962 0 0 1 5.953-5.953z" transform="translate(3.78 8.958)"/><path d="m52.907 44.388c-5.412 0-10.081 2.548-11.455 6.077a20.548 20.548 0 0 0 -13.114 0c-1.375-3.53-6.044-6.077-11.456-6.077-6.552 0-11.882 3.696-11.882 8.24v1.818a4.61 4.61 0 0 0 4.6 4.6h10.7c-.008.132-.014.265-.014.4v2.273a5.521 5.521 0 0 0 5.514 5.521h18.192a5.521 5.521 0 0 0 5.515-5.515v-2.273c0-.134-.007-.267-.014-.4h10.694a4.61 4.61 0 0 0 4.6-4.6v-1.824c.003-4.544-5.327-8.24-11.88-8.24zm-31.735 11.607s0 0 0 0c-.074.143-.146.287-.212.431-.086.185-.162.374-.232.563-.017.045-.04.088-.054.132h-11.074a2.678 2.678 0 0 1 -2.675-2.675v-1.817c0-3.48 4.465-6.312 9.953-6.312 4.648 0 8.624 2.043 9.679 4.858a11.507 11.507 0 0 0 -5.385 4.82zm22.82 9.315h-18.192a3.589 3.589 0 0 1 -3.585-3.585v-2.275a5.347 5.347 0 0 1 .242-1.574c.023-.07.05-.141.075-.211.052-.148.112-.293.177-.438s.137-.291.215-.432c.049-.092.1-.181.155-.271a6.992 6.992 0 0 1 .469-.678l.023-.031a11.083 11.083 0 0 1 4.511-3.2.181.181 0 0 0 .018-.015 18.708 18.708 0 0 1 13.6 0c.006 0 .011.008.016.011a11.076 11.076 0 0 1 4.511 3.2l.022.03a7.35 7.35 0 0 1 .47.679c.054.09.1.18.154.271.078.143.15.287.215.432s.125.291.177.438c.025.07.052.141.075.211a5.382 5.382 0 0 1 .242 1.574v2.275a3.587 3.587 0 0 1 -3.59 3.589zm16.194-8.188h-11.07c-.015-.045-.039-.088-.054-.132-.069-.191-.146-.378-.232-.564q-.1-.218-.212-.431s0 0 0 0a11.508 11.508 0 0 0 -5.388-4.82c1.054-2.814 5.03-4.858 9.678-4.858 5.489 0 9.953 2.832 9.953 6.312v1.819a2.678 2.678 0 0 1 -2.675 2.675z" transform="translate(15 2.007)"/><path d="m74.064 34.213a6.5 6.5 0 1 0 -6.5-6.5 6.508 6.508 0 0 0 6.5 6.5zm0-11.07a4.571 4.571 0 1 1 -4.571 4.57 4.577 4.577 0 0 1 4.571-4.57z" transform="translate(-6.001 9.785)"/></svg>