<svg height="100" viewBox="0 0 100 100" width="100" xmlns="http://www.w3.org/2000/svg"><circle cx="50" cy="50" fill="#f2c165" r="50"/><path d="m29.243 59.9c0 5.132 7.562 9 17.646 9s17.646-3.871 17.646-9v-13.869l7.565-3.511v19.9a1.44 1.44 0 1 0 2.881 0v-22.151-.36a1.486 1.486 0 0 0 -.9-.9l-26.562-12.424a1.335 1.335 0 0 0 -1.17 0l-26.739 12.334a1.358 1.358 0 0 0 -.81 1.26 1.412 1.412 0 0 0 .81 1.26l9.543 4.411v14.05zm17.646-30.43 23.228 10.8-23.228 10.8-23.228-10.8zm-14.765 30.43v-12.6l14.135 6.662a2.251 2.251 0 0 0 1.26 0l14.225-6.572v12.6c0 2.881-6.122 6.122-14.765 6.122s-14.855-3.335-14.855-6.212z" transform="translate(3.111 2.326)"/></svg>