<svg height="100" viewBox="0 0 100 100" width="100" xmlns="http://www.w3.org/2000/svg"><circle cx="50" cy="50" fill="#f2c165" r="50"/><g fill="none" stroke="#231f1e" stroke-width="2"><path d="m48.306 55.589-.143-.477-.286-.764-.191-.477-.525-.954-.716-.907-.954-.859-1.1-1-.907-.859-.859-.954-.716-.954-.668-1-.716-1.336-.43-.907-.525-1-.668-1.1-.764-1-.525-.525-.525-.477-.716-.525-.859-.382-1.1-.382-1.1-.143h-1.137l-1.1.143-1.575.573-1.527 1.05-1 1-.62.954-.62 1.1-.811 1.67-.764 1.479-.859 1.139-1.05 1.336-3.1 2.863-.286.239-.716 1-.575 1.147-.334 1.432-.191 1.288-.048 1.432.143.954.429 1.336.62 1.241.668.859.859.859 1.145.764 1.336.62 1 .239 1.527.048 1.479-.334.907-.43.382-.286.859-.477.811-.477.716-.43.764-.334.62-.286.716-.191.764-.048.907.143.668.143 1.1.525 1.336.668 1.1.716 1 .573 1 .43.954.191.811.048.668-.048 1.05-.286 1.336-.62.954-.668 1-1 .716-.954.62-1.288.382-1.241.143-1.05v-1.1l-.048-.62z" transform="matrix(.809 .588 -.588 .809 49.461143 -4.663624)"/><ellipse cx="7.349" cy="5.154" rx="7.349" ry="5.154" transform="matrix(.669417 -.742406 .742406 .669417 54.983836 44.670852)"/><ellipse cx="5.154" cy="7.349" rx="5.154" ry="7.349" transform="matrix(.865886 .499527 -.499527 .865886 52.231911 25.912902)"/><ellipse cx="7.301" cy="5.154" rx="7.301" ry="5.154" transform="matrix(.74980891957 -.66182444276 .66182444276 .74980891957 55.883042 58.460869)"/><ellipse cx="5.154" cy="7.301" rx="5.154" ry="7.301" transform="matrix(.91747946924 .39806586443 -.39806586443 .91747946924 36.775094 29.717758)"/></g></svg>