<svg xmlns="http://www.w3.org/2000/svg" width="189.822" height="136.8" viewBox="0 0 189.822 136.8"><g transform="translate(-1331.133 -1428.4)"><g transform="translate(1528.45 1122.6)"><path d="M-33.1,412.9c-.4-12.4-10-22.4-21.9-22.4s-21.5,10-21.9,22.4c-5.8,2.7-9.7,7.9-9.7,13.9,0,8.7,8.2,15.8,18.4,15.8A19.579,19.579,0,0,0-55,437.8a19.579,19.579,0,0,0,13.2,4.8c10.1,0,18.4-7.1,18.4-15.8C-23.4,420.8-27.3,415.6-33.1,412.9Z" fill="#d9ad2a"/><path d="M-79,393.8c-1.7-8.3-8.1-14-14.5-12.7-6.4,1.2-10.2,9-8.5,17.2,1.7,8.3,8.1,14,14.5,12.7C-81.2,409.8-77.4,402-79,393.8Z" fill="#d9ad2a"/><path d="M-16.4,381c-6.4-1.2-12.9,4.5-14.5,12.7-1.7,8.3,2.2,16,8.5,17.2,6.4,1.2,12.9-4.5,14.5-12.7C-6.2,390-10,382.3-16.4,381Z" fill="#d9ad2a"/><ellipse cx="12.9" cy="17.5" rx="12.9" ry="17.5" transform="translate(-84 351.4)" fill="#d9ad2a"/><ellipse cx="12.9" cy="17.5" rx="12.9" ry="17.5" transform="translate(-51.8 351.4)" fill="#d9ad2a"/></g><g transform="translate(1433.539 1077)"><path d="M-33.1,412.9c-.4-12.4-10-22.4-21.9-22.4s-21.5,10-21.9,22.4c-5.8,2.7-9.7,7.9-9.7,13.9,0,8.7,8.2,15.8,18.4,15.8A19.579,19.579,0,0,0-55,437.8a19.579,19.579,0,0,0,13.2,4.8c10.1,0,18.4-7.1,18.4-15.8C-23.4,420.8-27.3,415.6-33.1,412.9Z" fill="#231f1e"/><path d="M-79,393.8c-1.7-8.3-8.1-14-14.5-12.7-6.4,1.2-10.2,9-8.5,17.2,1.7,8.3,8.1,14,14.5,12.7C-81.2,409.8-77.4,402-79,393.8Z" fill="#231f1e"/><path d="M-16.4,381c-6.4-1.2-12.9,4.5-14.5,12.7-1.7,8.3,2.2,16,8.5,17.2,6.4,1.2,12.9-4.5,14.5-12.7C-6.2,390-10,382.3-16.4,381Z" fill="#231f1e"/><ellipse cx="12.9" cy="17.5" rx="12.9" ry="17.5" transform="translate(-84 351.4)" fill="#231f1e"/><ellipse cx="12.9" cy="17.5" rx="12.9" ry="17.5" transform="translate(-51.8 351.4)" fill="#231f1e"/></g></g></svg>