<svg xmlns="http://www.w3.org/2000/svg" width="28.894" height="33.906" viewBox="0 0 28.894 33.906">
  <g id="noun_puppy_school_1983299-2" data-name="noun_puppy school_1983299-2" transform="translate(-15.909 -10)">
    <path id="Path_569" data-name="Path 569" d="M41.947,38.591h0a3.484,3.484,0,1,0,2.535-4.225A3.491,3.491,0,0,0,41.947,38.591Zm4.737-3.106a2.637,2.637,0,1,1-3.915,2.9h0a2.637,2.637,0,0,1,3.915-2.9Z" transform="translate(-14.942 -13.978)" fill="#d9ad2a"/>
    <path id="Path_570" data-name="Path 570" d="M35.631,34.558a1.659,1.659,0,1,0-.408.05A1.683,1.683,0,0,0,35.631,34.558Zm-1.2-1.42h0a.821.821,0,1,1,.374.505A.822.822,0,0,1,34.43,33.138Z" transform="translate(-10.168 -12.255)" fill="#d9ad2a"/>
    <path id="Path_571" data-name="Path 571" d="M42.787,27.3a1.669,1.669,0,1,0-1.62-1.264A1.67,1.67,0,0,0,42.787,27.3Zm-.7-2.092a.821.821,0,1,1-.093.621A.816.816,0,0,1,42.083,25.208Z" transform="translate(-14.524 -8.045)" fill="#d9ad2a"/>
    <path id="Path_572" data-name="Path 572" d="M52.674,27.3a1.669,1.669,0,1,0-1.62-1.264A1.67,1.67,0,0,0,52.674,27.3Zm-.7-2.092a.821.821,0,1,1-.093.621A.816.816,0,0,1,51.969,25.207Z" transform="translate(-20.221 -8.043)" fill="#d9ad2a"/>
    <path id="Path_573" data-name="Path 573" d="M58.616,33.234a1.669,1.669,0,1,0,1.214-2.024A1.672,1.672,0,0,0,58.616,33.234Zm.915-.827a.821.821,0,1,1-.093.622A.816.816,0,0,1,59.53,32.407Z" transform="translate(-24.578 -12.192)" fill="#d9ad2a"/>
    <path id="Path_574" data-name="Path 574" d="M37.786,33.994a9,9,0,1,0-9-9A9.014,9.014,0,0,0,37.786,33.994Zm0-17.159A8.156,8.156,0,1,1,29.63,24.99,8.165,8.165,0,0,1,37.786,16.834Z" transform="translate(-7.417 -3.449)" fill="#d9ad2a"/>
    <path id="Path_575" data-name="Path 575" d="M16.017,40.676a.425.425,0,0,0,.488.1l6.174-2.748,2.085,5.6a.424.424,0,0,0,.374.275h.024a.423.423,0,0,0,.378-.233l4.779-9.489,4.855,9.492a.424.424,0,0,0,.377.231h.025a.424.424,0,0,0,.373-.275l2.085-5.6,6.174,2.748a.424.424,0,0,0,.538-.6L38.583,29.638a11.541,11.541,0,1,0-16.446-.019L15.967,40.18A.424.424,0,0,0,16.017,40.676Zm9.2,1.748-1.831-4.916,3.138-5.087a11.47,11.47,0,0,0,3.4.649Zm10.27.008-4.7-9.186h0l.089-.177a11.467,11.467,0,0,0,3.309-.64l3.135,5.079Zm2.6-5.3-3.1-5.015a11.566,11.566,0,0,0,2.959-1.881l5.4,9.239ZM30.369,10.848A10.693,10.693,0,1,1,19.676,21.541,10.705,10.705,0,0,1,30.369,10.848Zm-7.6,19.368A11.567,11.567,0,0,0,25.727,32.1l-3.1,5.024-5.265,2.343Z" transform="translate(0 0)" fill="#d9ad2a"/>
  </g>
</svg>
