<svg xmlns="http://www.w3.org/2000/svg" width="26.699" height="26.682" viewBox="0 0 26.699 26.682">
  <g id="noun_dog_bones_1951120" data-name="noun_dog bones_1951120" transform="translate(-9.968 -10.085)">
    <path id="Path_582" data-name="Path 582" d="M57.787,11.265a3.683,3.683,0,0,0-2.716-1.181,3.723,3.723,0,0,0-.311,7.433V29.333a3.723,3.723,0,0,0,.311,7.434,3.683,3.683,0,0,0,2.716-1.18,3.683,3.683,0,0,0,2.716,1.18,3.724,3.724,0,0,0,.334-7.432V17.517a3.724,3.724,0,0,0-.334-7.432A3.683,3.683,0,0,0,57.787,11.265Zm5.771,2.543A3.059,3.059,0,0,1,60.5,16.864a.334.334,0,0,0-.334.334V29.654a.334.334,0,0,0,.334.334,3.055,3.055,0,1,1-2.448,4.878.334.334,0,0,0-.536,0,3.054,3.054,0,1,1-2.448-4.878H55.1a.334.334,0,0,0,.334-.334V17.2a.355.355,0,0,0-.357-.334,3.056,3.056,0,1,1,2.448-4.878.346.346,0,0,0,.536,0,3.052,3.052,0,0,1,5.5,1.823Z" transform="translate(-27.56)" fill="#d9ad2a"/>
    <path id="Path_583" data-name="Path 583" d="M9.968,33.044a3.728,3.728,0,0,0,3.723,3.723,3.683,3.683,0,0,0,2.716-1.18,3.683,3.683,0,0,0,2.716,1.18,3.724,3.724,0,0,0,.334-7.432V17.517a3.724,3.724,0,0,0-.334-7.432,3.683,3.683,0,0,0-2.716,1.181,3.683,3.683,0,0,0-2.716-1.181,3.723,3.723,0,0,0-.311,7.433V29.333A3.728,3.728,0,0,0,9.968,33.044Zm4.081-3.389V17.2a.355.355,0,0,0-.357-.334,3.056,3.056,0,1,1,2.448-4.878.346.346,0,0,0,.536,0,3.054,3.054,0,1,1,2.448,4.878.334.334,0,0,0-.334.334V29.654a.334.334,0,0,0,.334.334,3.055,3.055,0,1,1-2.448,4.878.334.334,0,0,0-.536,0,3.054,3.054,0,1,1-2.448-4.878h.023A.334.334,0,0,0,14.049,29.654Z" fill="#d9ad2a"/>
  </g>
</svg>
