<svg xmlns="http://www.w3.org/2000/svg" width="28.679" height="21.456" viewBox="0 0 28.679 21.456">
  <g id="noun_dog_show_1063824" data-name="noun_dog show_1063824" transform="translate(-9.5 -19.8)">
    <path id="Path_576" data-name="Path 576" d="M42.813,55.4a1.951,1.951,0,0,0-1.947,1.629H35.13A2.008,2.008,0,0,0,33.183,55.4,1.98,1.98,0,0,0,31.2,57.383a1.943,1.943,0,0,0,.5,1.31A1.943,1.943,0,0,0,31.2,60a1.98,1.98,0,0,0,1.983,1.983,2.014,2.014,0,0,0,1.983-1.664h5.7a2.048,2.048,0,0,0,1.983,1.664A1.98,1.98,0,0,0,44.831,60a1.943,1.943,0,0,0-.5-1.31,1.943,1.943,0,0,0,.5-1.31A2.01,2.01,0,0,0,42.813,55.4Zm.779,3.611a1.345,1.345,0,0,1,.531,1.027,1.275,1.275,0,0,1-2.549,0h0a.335.335,0,0,0-.354-.354H34.847a.355.355,0,0,0-.354.354,1.275,1.275,0,0,1-2.549,0,1.2,1.2,0,0,1,.531-1.027.354.354,0,0,0,0-.566,1.345,1.345,0,0,1-.531-1.027,1.275,1.275,0,0,1,2.549,0,.335.335,0,0,0,.354.354H41.22a.335.335,0,0,0,.354-.354,1.275,1.275,0,1,1,2.549,0,1.2,1.2,0,0,1-.531,1.027.354.354,0,0,0,0,.566Z" transform="translate(-14.017 -22.995)" fill="#d9ad2a"/>
    <path id="Path_577" data-name="Path 577" d="M37.825,19.8H9.854a.335.335,0,0,0-.354.354V40.9a.335.335,0,0,0,.354.354H37.825a.335.335,0,0,0,.354-.354V20.154A.335.335,0,0,0,37.825,19.8Zm-.354,20.748H10.208V20.508H37.471Z" fill="#d9ad2a"/>
    <path id="Path_578" data-name="Path 578" d="M39.354,31.555a.335.335,0,0,0,.354-.354,3.293,3.293,0,1,1,6.586,0,.354.354,0,0,0,.708,0,4,4,0,1,0-8,0A.355.355,0,0,0,39.354,31.555Z" transform="translate(-19.055 -4.78)" fill="#d9ad2a"/>
    <path id="Path_579" data-name="Path 579" d="M26.254,50.908H42.9a.354.354,0,1,0,0-.708H26.254a.354.354,0,1,0,0,.708Z" transform="translate(-10.593 -19.636)" fill="#d9ad2a"/>
    <path id="Path_580" data-name="Path 580" d="M26.254,45.508H42.9a.354.354,0,0,0,0-.708H26.254a.354.354,0,1,0,0,.708Z" transform="translate(-10.593 -16.148)" fill="#d9ad2a"/>
    <path id="Path_581" data-name="Path 581" d="M46.6,33.745A1.345,1.345,0,1,0,47.945,32.4,1.345,1.345,0,0,0,46.6,33.745Zm1.947,0a.637.637,0,1,1-.637-.637A.635.635,0,0,1,48.547,33.745Z" transform="translate(-23.964 -8.139)" fill="#d9ad2a"/>
  </g>
</svg>
